<?xml version="1.0" standalone="no"?><!DOCTYPE svg PUBLIC "-//W3C//DTD SVG 1.1//EN" "http://www.w3.org/Graphics/SVG/1.1/DTD/svg11.dtd"><svg
        class="icon" viewBox="0 0 1024 1024" version="1.1" xmlns="http://www.w3.org/2000/svg" xmlns:xlink="http://www.w3.org/1999/xlink" width="200" height="200"><defs><style type="text/css"></style></defs><path d="M978.371765 130.800941L587.866353 521.306353l-102.098824 16.775529 13.824-98.906353L893.199059 45.628235a60.235294 60.235294 0 0 1 85.172706 85.172706zM479.744 539.105882l6.023529-0.993882-0.873411 6.023529zM602.352941 177.694118V180.705882H210.823529a90.352941 90.352941 0 0 0-90.352941 90.352942v542.117647a90.352941 90.352941 0 0 0 90.352941 90.352941h542.117647a90.352941 90.352941 0 0 0 90.352942-90.352941V451.764706h3.011764a44.544 44.544 0 0 1 84.329412 0h3.011765v421.647059a120.470588 120.470588 0 0 1-120.470588 120.470588H150.588235a120.470588 120.470588 0 0 1-120.470588-120.470588V210.823529a120.470588 120.470588 0 0 1 120.470588-120.470588h451.764706v3.011765a44.544 44.544 0 0 1 0 84.329412z" ></path></svg>