<?xml version="1.0" standalone="no"?><!DOCTYPE svg PUBLIC "-//W3C//DTD SVG 1.1//EN" "http://www.w3.org/Graphics/SVG/1.1/DTD/svg11.dtd"><svg
        class="icon" viewBox="0 0 1024 1024" version="1.1" xmlns="http://www.w3.org/2000/svg" xmlns:xlink="http://www.w3.org/1999/xlink" width="200" height="200"><defs><style type="text/css"></style></defs><path d="M740.2 218.7c2.6-20.3-10.8-38.9-29.8-41.3l-477.2-60.9c-19-2.4-36.6 12.2-39.2 32.5l-15.7 123.4 555.3-1.8 6.6-51.9zM673.9 590.8s0 0.1 0 0c0 24.6 19.9 44.5 44.4 44.5 24.6 0 44.5-19.9 44.5-44.4v-0.1c0-24.6-19.9-44.5-44.4-44.5s-44.5 20-44.5 44.5z" fill="#e6e6e6"></path><path d="M922 484.5V394c0-46-37.6-83.6-83.6-83.6H185.6c-46 0-83.6 37.6-83.6 83.6v434.3c0 46 37.6 83.6 83.6 83.6h652.8c46 0 83.6-37.6 83.6-83.6V692.2c0-11.2-9.1-20.3-20.3-20.3H712.1c-46 0-83.6-37.6-83.6-83.6 0-46 37.6-83.6 83.6-83.6h189.6c11.2 0.1 20.3-9 20.3-20.2z" fill="#e6e6e6"></path></svg>