<?xml version="1.0" standalone="no"?><!DOCTYPE svg PUBLIC "-//W3C//DTD SVG 1.1//EN" "http://www.w3.org/Graphics/SVG/1.1/DTD/svg11.dtd"><svg
        class="icon" viewBox="0 0 1603 1024" version="1.1" xmlns="http://www.w3.org/2000/svg" xmlns:xlink="http://www.w3.org/1999/xlink" width="313.0859375" height="200"><defs><style type="text/css"></style></defs><path d="M1045.763084 122.065735l246.006747 200.259855-492.013494 322.337928-102.066891-353.810506 102.054554-168.787277z" fill="#B3B3B3"></path><path d="M799.756337 122.065735v522.61012L307.730506 322.313253l115.403566-161.150458z" fill="#CCCCCC"></path><path d="M307.730506 822.827181l492.013494 199.235855V521.549108l-492.013494-199.21118z" fill="#B3B3B3"></path><path d="M799.756337 521.549108v500.501591l492.013494-199.223518V322.32559z" fill="#CCCCCC"></path><path d="M0 444.391325l492.013494 200.272193 307.742843-122.053398-492.038168-200.272192zM799.756337 522.61012l307.730506 122.053398 492.013494-200.272193-307.730506-122.065735zM1107.474506 0L799.744 122.065735l492.038169 200.259855 307.718168-122.065735z" fill="#E6E6E6"></path><path d="M492.025831 0L0.012337 200.259855l307.718169 122.065735 492.013494-200.259855z" fill="#E6E6E6"></path></svg>