<?xml version="1.0" standalone="no"?><!DOCTYPE svg PUBLIC "-//W3C//DTD SVG 1.1//EN" "http://www.w3.org/Graphics/SVG/1.1/DTD/svg11.dtd"><svg t="1628975783762" class="icon" viewBox="0 0 1024 1024" version="1.1" xmlns="http://www.w3.org/2000/svg" p-id="4294" xmlns:xlink="http://www.w3.org/1999/xlink" width="200" height="200"><defs><style type="text/css"></style></defs><path d="M953.223 425.141 531.576 63.729c-11.204-9.698-27.889-9.698-39.153 0L70.777 425.141c-9.577 8.192-13.071 21.504-8.674 33.311 4.397 11.866 15.661 19.696 28.25 19.696l90.354 0 0 451.765c0 16.625 13.492 30.118 30.117 30.118l602.353 0c16.625 0 30.118-13.493 30.118-30.118L843.295 478.147l90.353 0c12.589 0 23.913-7.83 28.25-19.696S962.801 433.333 953.223 425.141zM631.747 508.446c13.313 0 24.095 10.842 24.095 24.154 0.06 13.312-10.782 24.154-24.095 24.154L535.13 556.754l0 48.369 96.617 0c13.313 0 24.095 10.842 24.095 24.094s-10.782 24.094-24.095 24.094L535.13 653.311l0 120.712c0.061 13.252-10.782 24.095-24.154 24.095s-24.154-10.843-24.154-24.095L486.822 653.312l-96.558 0c-13.312 0-24.154-10.842-24.154-24.094s10.843-24.094 24.154-24.094l96.558 0 0-48.369-96.558 0c-13.312 0-24.154-10.843-24.154-24.154 0-13.313 10.843-24.154 24.154-24.154l74.001 0L374 403.516c-8.733-10.12-7.589-25.359 2.53-34.033 10.06-8.734 25.299-7.59 34.033 2.53l100.813 117.194 104.348-117.495c8.854-10.059 24.154-10.902 34.033-2.048 9.999 8.854 10.963 24.094 2.048 34.093l-92.893 104.689L631.747 508.446z" p-id="4295"></path></svg>