<?xml version="1.0" standalone="no"?><!DOCTYPE svg PUBLIC "-//W3C//DTD SVG 1.1//EN" "http://www.w3.org/Graphics/SVG/1.1/DTD/svg11.dtd"><svg
        class="icon" viewBox="0 0 1024 1024" version="1.1" xmlns="http://www.w3.org/2000/svg" xmlns:xlink="http://www.w3.org/1999/xlink" width="200" height="200"><defs><style type="text/css"></style></defs><path d="M807.7312 33.9968c-82.944-65.3312-166.5024-23.552-215.04 37.6832l234.2912 182.272c54.6816-66.56 61.2352-156.4672-19.2512-219.9552zM618.496 281.1904c82.944 65.3312 185.5488 24.7808 196.1984-3.8912l-235.52-182.4768c-32.5632 5.7344-41.1648 122.88 39.3216 186.368z"></path><path d="M832.512 589.2096l-34.2016 44.2368c-41.3696-23.552-62.8736-68.608-70.656-128.4096-11.264-73.9328-42.8032-104.6528-77.4144-129.2288 2.2528-9.0112 20.48-26.8288 32.5632-45.8752-94.6176-25.3952-118.784-89.2928-119.808-88.8832-1.024 0.6144-32.9728 46.2848-32.9728 46.2848l-15.36-2.2528c-17.6128 3.2768-31.3344 19.6608-39.7312 55.296l-65.9456-46.4896c-16.7936-5.9392-31.3344-1.4336-44.8512 7.7824-18.432 11.8784-26.0096 31.3344-22.528 58.5728-25.8048-8.8064-45.8752-3.2768-62.6688 10.4448-21.504 20.8896-21.0944 45.6704-5.7344 73.3184-25.1904-0.8192-38.7072 5.7344-46.08 15.5648-15.36 20.48-20.8896 41.984-0.8192 72.4992-17.8176 0-32.768 5.3248-40.5504 19.2512-13.1072 23.3472-10.8544 46.2848 10.6496 64.7168l50.5856 43.6224c3.072 4.7104 3.2768 9.216 0.6144 13.1072L182.272 762.6752c-18.8416 14.9504-9.0112 36.0448 8.6016 76.1856 1.6384 9.0112-1.024 16.384-4.9152 23.1424-16.384 15.1552-33.9968 23.552-52.8384 26.4192-19.6608 1.024-37.4784-2.2528-54.6816-7.7824l-0.4096 14.336c15.9744 6.144 32.9728 8.8064 51.2 6.9632 25.1904-0.6144 52.6336-13.312 82.944-40.7552l39.3216 3.072c18.2272 1.4336 31.744 0.4096 43.4176-11.0592l75.1616-97.4848 111.8208 80.6912 20.6848 2.2528 54.6816-5.5296 62.6688 48.128-40.96 53.4528L698.368 1024l11.8784-14.1312-102.8096-82.5344 229.376-309.6576L921.6 684.032l-108.7488 153.1904 17.408 11.8784L948.224 681.984l-115.712-92.7744zM368.0256 321.9456c14.336-16.9984 39.936-19.0464 56.9344-4.5056l71.8848 61.0304c16.9984 14.336 19.0464 40.1408 4.5056 56.9344-14.336 16.9984-40.1408 19.0464-56.9344 4.7104L372.5312 378.88c-16.9984-14.336-19.0464-39.936-4.5056-56.9344z m-74.1376 56.5248c8.6016-9.4208 35.0208-10.0352 45.056-2.048l117.76 93.7984c10.0352 7.9872 9.4208 38.5024 2.2528 45.4656l-16.384 16.384c-3.8912 3.6864-30.5152 6.5536-40.3456-1.6384l-112.64-92.3648c-19.6608-32.1536-9.216-44.8512 4.3008-59.5968z m16.9984 277.9136c-15.9744 17.2032-42.1888 1.6384-46.2848-4.096l-57.9584-44.4416c-17.6128-13.5168-19.0464-43.6224-8.192-51.6096 16.7936-12.6976 26.0096-14.7456 46.2848 1.8432l60.6208 49.5616c21.7088 17.408 19.8656 31.744 5.5296 48.7424z m11.0592-62.0544l-80.6912-64.9216c-17.408-13.9264-19.0464-40.1408-4.7104-56.9344 14.5408-16.9984 39.7312-18.432 56.9344-4.7104l80.896 64.9216c17.408 13.9264 19.0464 40.1408 4.5056 56.9344-14.336 17.2032-39.5264 18.6368-56.9344 4.7104z m464.896 60.2112l-156.672 208.896-68.1984-43.8272-38.7072 3.2768-35.4304-3.6864-108.3392-76.3904c2.6624 1.024 157.696-212.3776 184.5248-249.0368 2.4576-3.4816 6.3488 2.048 6.3488 2.048-20.6848 64.512-11.264 111.8208 17.408 159.744 6.5536 1.8432 13.1072 2.4576 13.9264-4.096-36.0448-53.6576-36.864-112.4352-13.312-174.2848-30.5152-31.3344-60.6208-65.536-89.2928-108.544-6.5536-33.5872-5.5296-61.6448 23.1424-70.4512l158.5152 125.952c23.3472 33.5872 33.9968 69.4272 33.792 107.1104 8.6016 49.152 34.4064 84.992 71.68 111.616 3.2768 3.8912 3.4816 7.7824 0.6144 11.6736z"></path></svg>