<?xml version="1.0" standalone="no"?><!DOCTYPE svg PUBLIC "-//W3C//DTD SVG 1.1//EN" "http://www.w3.org/Graphics/SVG/1.1/DTD/svg11.dtd"><svg t="1628997270974" class="icon" viewBox="0 0 1024 1024" version="1.1" xmlns="http://www.w3.org/2000/svg" p-id="9519" xmlns:xlink="http://www.w3.org/1999/xlink" width="200" height="200"><defs><style type="text/css"></style></defs><path d="M512 166.4c-83.2 0-147.2 32-198.4 89.6-51.2 64-76.8 160-57.6 256 19.2 121.6 121.6 345.6 256 345.6s230.4-230.4 256-345.6c19.2-89.6 0-185.6-57.6-256-44.8-57.6-115.2-89.6-198.4-89.6z m224 339.2c-25.6 108.8-115.2 320-224 320s-198.4-185.6-224-320c-12.8-83.2 6.4-172.8 57.6-230.4C384 224 441.6 204.8 512 204.8s134.4 25.6 172.8 76.8c44.8 57.6 64 147.2 51.2 224z" p-id="9520"></path><path d="M467.2 550.4c-12.8-32-25.6-64-44.8-76.8-19.2-12.8-38.4-19.2-51.2-19.2-19.2 0-38.4 6.4-51.2 19.2-12.8 12.8-19.2 32-19.2 51.2 0 19.2 12.8 44.8 25.6 57.6 32 25.6 89.6 51.2 121.6 51.2 12.8 0 19.2 0 25.6-6.4 12.8-19.2 0-57.6-6.4-76.8z m-6.4 64H448c-25.6 0-83.2-25.6-108.8-51.2-19.2-6.4-19.2-25.6-19.2-38.4 0-19.2 6.4-32 12.8-38.4 6.4-6.4 25.6-12.8 38.4-12.8 12.8 0 25.6 0 44.8 19.2 12.8 12.8 32 38.4 38.4 70.4 6.4 25.6 6.4 44.8 6.4 51.2zM595.2 473.6c-19.2 19.2-38.4 51.2-44.8 76.8-6.4 19.2-19.2 57.6-6.4 76.8 6.4 6.4 12.8 6.4 25.6 6.4 32 0 96-32 121.6-51.2 38.4-32 32-83.2 12.8-108.8-12.8-12.8-32-19.2-51.2-19.2-12.8 0-32 6.4-57.6 19.2z m89.6 96c-25.6 25.6-83.2 51.2-115.2 51.2h-12.8c0-12.8-6.4-32 6.4-64 12.8-25.6 32-57.6 44.8-70.4 19.2-12.8 32-19.2 44.8-19.2 12.8 0 32 6.4 38.4 12.8 12.8 19.2 25.6 64-6.4 89.6zM544 736h-64c-6.4 0-6.4 6.4-6.4 6.4 0 6.4 6.4 6.4 6.4 6.4h64c6.4 0 6.4-6.4 6.4-6.4s0-6.4-6.4-6.4z" p-id="9521"></path></svg>