<?xml version="1.0" standalone="no"?><!DOCTYPE svg PUBLIC "-//W3C//DTD SVG 1.1//EN" "http://www.w3.org/Graphics/SVG/1.1/DTD/svg11.dtd"><svg t="1628975064574" class="icon" viewBox="0 0 1024 1024" version="1.1" xmlns="http://www.w3.org/2000/svg" p-id="1918" xmlns:xlink="http://www.w3.org/1999/xlink" width="200" height="200"><defs><style type="text/css"></style></defs><path d="M31.993841 767.859547a95.981524 95.981524 0 0 1 73.265897 38.712548A155.17013 155.17013 0 0 0 223.956888 863.841071a155.17013 155.17013 0 0 0 118.377213-57.268976A94.061893 94.061893 0 0 1 415.919935 767.859547a95.981524 95.981524 0 0 1 73.265897 38.712548 151.330869 151.330869 0 0 0 237.394301 0 89.262817 89.262817 0 0 1 146.851731 0A155.490068 155.490068 0 0 0 991.809077 863.841071a31.993841 31.993841 0 0 0 0-63.987683 95.981524 95.981524 0 0 1-73.265897-38.712548 151.330869 151.330869 0 0 0-237.394301 0 88.942878 88.942878 0 0 1-146.851731 0 151.330869 151.330869 0 0 0-237.074363 0A94.061893 94.061893 0 0 1 223.956888 799.853388a95.981524 95.981524 0 0 1-73.265896-38.712548A155.17013 155.17013 0 0 0 31.993841 703.871865a31.993841 31.993841 0 0 0 0 63.987682z" p-id="1919"></path><path d="M991.809077 959.822594a95.981524 95.981524 0 0 1-73.265897-38.712548 151.330869 151.330869 0 0 0-237.394301 0 88.942878 88.942878 0 0 1-146.851731 0 151.330869 151.330869 0 0 0-237.074363 0A94.061893 94.061893 0 0 1 223.956888 959.822594a95.981524 95.981524 0 0 1-73.265896-38.712548A155.17013 155.17013 0 0 0 31.993841 863.841071a31.993841 31.993841 0 0 0 0 63.987682 95.981524 95.981524 0 0 1 73.265897 38.712548A155.17013 155.17013 0 0 0 223.956888 1023.810277a155.17013 155.17013 0 0 0 118.377213-57.268976A94.061893 94.061893 0 0 1 415.919935 927.828753a95.981524 95.981524 0 0 1 73.265897 38.712548 151.330869 151.330869 0 0 0 237.394301 0 89.262817 89.262817 0 0 1 146.851731 0A155.490068 155.490068 0 0 0 991.809077 1023.810277a31.993841 31.993841 0 0 0 0-63.987683zM210.839413 446.321443a554.133329 554.133329 0 0 1-55.669283 243.79307 31.993841 31.993841 0 0 0 57.588914 27.834642 617.801073 617.801073 0 0 0 62.068052-271.627712A622.920088 622.920088 0 0 0 152.930561 76.792577 561.491913 561.491913 0 0 1 272.587527 63.995041 556.692837 556.692837 0 0 1 831.839871 607.890341a31.993841 31.993841 0 0 0 31.993841 31.993841 31.993841 31.993841 0 0 0 31.993841-31.993841A620.360581 620.360581 0 0 0 272.587527 0.007359a623.559965 623.559965 0 0 0-184.604464 27.834641 31.993841 31.993841 0 0 0-14.717167 51.510085 559.252344 559.252344 0 0 1 137.573517 366.969358z" p-id="1920"></path></svg>