<?xml version="1.0" standalone="no"?><!DOCTYPE svg PUBLIC "-//W3C//DTD SVG 1.1//EN" "http://www.w3.org/Graphics/SVG/1.1/DTD/svg11.dtd"><svg
        class="icon" viewBox="0 0 1024 1024" version="1.1" xmlns="http://www.w3.org/2000/svg" xmlns:xlink="http://www.w3.org/1999/xlink" width="200" height="200"><defs><style type="text/css"></style></defs><path d="M638.849295 71.892728c-61.467062-19.165479-146.913156-31.01081-241.697983-31.01081-94.762645 0-180.208739 11.845331-241.697984 31.01081-54.524013 16.991617-88.285423 37.576761-88.285423 57.718259s33.761411 40.748825 88.285423 57.718259c61.489245 19.165479 146.935338 31.01081 241.697984 31.01081 94.784828 0 180.230921-11.845331 241.697983-31.01081 54.546195-16.991617 88.285423-37.576761 88.285423-57.740441s-33.739228-40.70446-88.285423-57.696077M287.105084 129.610987c0 1.841128 1.685852 1.109113 4.747005 0-3.061153-1.086931-4.747005-1.818946-4.747005 0z m220.092455 0c0-1.818946-1.685852-1.086931-4.769187 0 3.083335 1.109113 4.769187 1.841128 4.769187 0z m-31.964647 0c-21.206247-3.32734-48.33516-5.323744-78.103763-5.323744-29.724238 0-56.875333 1.996404-78.08158 5.323744 21.206247 3.32734 48.357342 5.345926 78.08158 5.345927 29.790785 0 56.897515-2.018586 78.103763-5.345927z m-78.08158-46.205662c37.310573 0 71.315989 3.061153 96.18231 7.941251 33.827957 6.676862 54.768018 19.96404 54.768018 38.264411 0 18.30037-20.917878 31.587548-54.768018 38.264411-24.866322 4.924463-58.871737 7.963434-96.18231 7.963434-37.266209 0-71.293807-3.061153-96.160129-7.963434-33.827957-6.676862-54.745835-19.941858-54.745835-38.264411 0-18.278188 20.917878-31.587548 54.745835-38.264411 24.844139-4.902281 58.893919-7.941252 96.160129-7.941251z m330.005589 108.205099c-19.498213 13.375907-45.318372 25.065962-76.173906 34.670884-65.282412 20.363321-155.07623 32.940667-253.831683 32.940666-98.733271 0-188.527089-12.577345-253.831684-32.940666-30.855534-9.604922-56.675693-21.317159-76.151723-34.670884V894.389013c0 20.141499 33.739228 40.726643 88.263241 57.718259 61.489245 19.165479 146.935338 31.01081 241.697983 31.01081 94.784828 0 180.230921-11.845331 241.697984-31.01081 54.546195-16.991617 88.285423-37.554578 88.285423-57.718259V191.610424zM413.189091 584.325282a20.429868 20.429868 0 0 1-40.881919 0v-81.741654a20.429868 20.429868 0 0 1 40.881919 0v81.741654z m0 204.320863a20.45205 20.45205 0 0 1-40.881919 0v-81.741654a20.45205 20.45205 0 0 1 40.881919 0v81.741654z m0 141.811234a20.45205 20.45205 0 0 1-40.881919 0v-19.209843a20.45205 20.45205 0 0 1 40.881919 0v19.209843z m-40.859736-632.194614a20.45205 20.45205 0 0 1 40.881918 0v81.741654a20.429868 20.429868 0 0 1-40.881918 0v-81.741654z m395.687282-148.199728v726.713256h188.682364V150.063037h-188.682364zM397.151312 0c98.755454 0 188.549271 12.577345 253.831683 32.940667 59.648116 18.58874 100.552217 44.985638 112.996469 76.240452h213.149405c11.268592 0 20.407686 9.161276 20.407686 20.429868v767.595174a20.429868 20.429868 0 0 1-20.407686 20.45205h-214.325065c-13.730823 30.012607-53.947274 55.389121-111.820809 73.423304-65.282412 20.363321-155.07623 32.940667-253.831683 32.940667-98.733271 0-188.527089-12.577345-253.831684-32.940667C71.02762 968.544332 26.308169 934.538916 26.308169 894.389013V128.967701c0.48801-39.861534 45.118731-73.622945 116.989277-96.004852C208.624223 12.577345 298.41804 0 397.151312 0z"></path></svg>