<?xml version="1.0" standalone="no"?><!DOCTYPE svg PUBLIC "-//W3C//DTD SVG 1.1//EN" "http://www.w3.org/Graphics/SVG/1.1/DTD/svg11.dtd"><svg
        class="icon" viewBox="0 0 1024 1024" version="1.1" xmlns="http://www.w3.org/2000/svg" xmlns:xlink="http://www.w3.org/1999/xlink" width="200" height="200"><defs><style type="text/css"></style></defs><path d="M620.698 23.778c44.158 247.967-142.666 193.618-50.952 404.22 6.793-190.221 186.824-227.586 50.952-404.22z m-281.935 995.265h-159.65c-57.746 0-101.905-47.555-101.905-105.301V574.06c23.778-210.602 98.508-173.237 118.889-261.554V105.3h118.888v207.206c20.38 88.317 98.508 50.952 118.888 261.554v343.078c6.794 54.349-37.365 101.904-95.11 101.904z m40.761-400.824c0-20.38-16.984-37.364-40.761-37.364H236.858c-23.777 0-40.761 16.984-40.761 37.364V852.6c0 20.381 16.984 37.365 40.761 37.365h101.905c23.777 0 40.761-16.984 40.761-37.365V618.22zM199.494 84.92V40.762C199.493 16.984 216.477 0 240.254 0h40.762c23.778 0 40.762 16.984 40.762 40.762v40.761c-57.746 3.397-71.333 3.397-122.286 3.397z m550.283 84.92l-33.968 88.318-244.57 669.171c-6.794 13.587 0 33.968 13.587 37.365l152.856 57.746c13.587 6.793 27.174-10.19 30.571-20.381l244.57-669.172 33.969-88.317c6.793-13.587-3.397-16.984-16.984-23.777L776.95 163.047c-10.19-3.397-23.777-3.397-27.174 6.794zM522.19 927.33l230.984-625.014 108.697 40.762L630.888 968.09 522.19 927.329z m370.253-672.57l-16.984 44.16-108.698-40.762 16.984-40.762 108.698 37.365z m0 0"></path></svg>