<?xml version="1.0" standalone="no"?><!DOCTYPE svg PUBLIC "-//W3C//DTD SVG 1.1//EN" "http://www.w3.org/Graphics/SVG/1.1/DTD/svg11.dtd"><svg
        class="icon" viewBox="0 0 1024 1024" version="1.1" xmlns="http://www.w3.org/2000/svg" xmlns:xlink="http://www.w3.org/1999/xlink" width="200" height="200"><defs><style type="text/css"></style></defs><path d="M510.7 143.6c49.7 0 97.9 9.7 143.2 28.9 43.8 18.5 83.2 45.1 117 78.9 33.8 33.8 60.4 73.2 78.9 117 19.2 45.3 28.9 93.5 28.9 143.2s-9.7 97.9-28.9 143.2c-18.5 43.8-45.1 83.2-78.9 117-33.8 33.8-73.2 60.4-117 78.9-45.3 19.2-93.5 28.9-143.2 28.9s-97.9-9.7-143.2-28.9c-43.8-18.5-83.2-45.1-117-78.9-33.8-33.8-60.4-73.2-78.9-117-19.2-45.3-28.9-93.5-28.9-143.2s9.7-97.9 28.9-143.2c18.5-43.8 45.1-83.2 78.9-117 33.8-33.8 73.2-60.4 117-78.9 45.3-19.2 93.5-28.9 143.2-28.9m0-80c-247.4 0-448 200.6-448 448s200.6 448 448 448 448-200.6 448-448-200.6-448-448-448z"></path><path d="M637.1 624.3c-28.7 28.6-68.2 46.3-111.8 46.3-87.3 0-158.3-71-158.3-158.3C367 425 438 354 525.3 354c43.5 0 82.9 17.6 111.5 46.1l69.3-69.3C657.8 282.5 593.6 256 525.3 256c-68.5 0-132.8 26.7-181.2 75.1-48.4 48.3-75.1 112.7-75.1 181.1 0 68.5 26.7 132.8 75.1 181.2 48.4 48.4 112.8 75.1 181.2 75.1 68.4 0 132.7-26.6 181.1-74.9l-69.3-69.3z"></path></svg>