<?xml version="1.0" standalone="no"?><!DOCTYPE svg PUBLIC "-//W3C//DTD SVG 1.1//EN" "http://www.w3.org/Graphics/SVG/1.1/DTD/svg11.dtd"><svg
        class="icon" viewBox="0 0 1024 1024" version="1.1" xmlns="http://www.w3.org/2000/svg" xmlns:xlink="http://www.w3.org/1999/xlink" width="200" height="200"><defs><style type="text/css"></style></defs><path d="M356.701332 593.027429c24.125691-3.588946 37.983009-17.147185 36.387922-41.970727-1.495394-22.331218-15.25302-35.490686-37.783623-35.490686-24.823542 0-39.279018 14.056704-38.979939 38.979939 0.299079 25.022927 15.751484 36.98608 40.37564 38.481474m271.762949 272.759878c-0.797544-42.668577-35.690072-76.663869-78.258956-76.464483-42.668577 0.199386-77.162334 34.294371-77.660799 76.962948-0.598158 44.46305 36.288229 80.551894 80.651587 78.956807 42.469192-1.495394 76.165405-36.98608 75.268168-79.455272m-391.59386 0.99693c-0.299079-42.668577-34.593449-77.062641-77.262027-77.461413s-77.561106 33.397134-78.657728 75.966019c-1.096622 44.46305 35.191607 80.950666 79.654657 79.953736 42.568885-0.996929 76.564176-35.989151 76.265098-78.458342m98.297236-861.147598h39.179325c13.957011 15.053634 32.89867 24.923234 39.578096 47.254452 30.107267 101.188332 61.610236 201.479428 59.01822 309.44688-2.891095 121.226613-0.598158 242.552918-0.598158 366.47124 12.361924-3.888025 19.838895-6.380348 27.415558-8.673286 82.745139-25.421699 165.988742 12.56131 196.494781 89.723644 30.705425 77.561106-3.688639 161.402867-81.947595 200.582191-8.274514 4.187103-19.838895 2.791402-24.524463 13.55824H511.424772c-87.829478-38.581167-127.307882-104.976664-117.936746-201.080656 2.691709-27.415558-1.096622-55.329581 0.797544-82.844831 1.794473-25.521392-6.679427-29.708496-32.101126-31.303583-37.883316-2.292938-52.139407 7.377277-47.055067 45.958445 2.990788 22.331218-1.395701 45.659366 0.897236 68.189969 9.570522 96.004299-29.907881 162.499489-117.837052 200.980963h-78.35865c-54.831116-23.527533-93.910748-62.806551-117.537973-117.537974v-78.258956c62.308086-112.453634 106.571751-131.99345 234.976254-102.185262 0-104.677585 3.489253-209.056091-0.897236-313.135518-4.884954-116.04258 17.944729-226.402662 52.438485-335.666122 8.872671-28.711566 22.032139-53.335722 46.357216-71.479836z m548.311159 1018.263668c-51.441556-39.976868-64.501331-88.726715-51.441556-154.125282 15.751484-79.455272 32.001433-159.708087 32.599591-241.855068 0.199386-27.415558-7.177892-36.487615-35.191607-35.490685-55.429274 2.093552-110.95824 0.697851-166.387514 0.598157-14.754555-0.099693-32.599591 0.697851-32.101126-20.03828 0.398772-20.437052 18.343501-19.041351 33.098056-19.041351 50.54432-0.099693 101.288025 1.69478 151.732651-0.99693 16.249949-0.797544 48.84954 18.044422 47.15476-19.739202-1.595087-35.690072-32.798977-16.449335-49.54739-17.446264-48.84954-2.791402-97.898465-0.797544-146.847698-1.096622-15.851177-0.099693-36.786694 2.891095-35.390993-21.334289 1.096622-19.938588 19.938588-17.545957 34.394064-17.64565 57.124053-0.099693 114.248107 0.099693 171.37216-0.199386 12.162538-0.099693 26.318936 3.987718 27.415558-17.246878 1.196315-22.929376-12.56131-21.932446-27.914022-21.832753-53.834186 0.199386-107.668373 0.598158-161.50256-0.199386-16.449335-0.199386-42.568885 7.576663-43.167042-17.845036-0.598158-30.007574 27.81433-20.237666 45.160901-20.536745 52.139407-1.196315 104.378506-0.099693 156.617605-0.697851 13.059775-0.099693 30.20696 6.280655 30.904811-18.642579 0.598158-24.524463-15.552098-20.137973-29.50911-20.237667-57.124053-0.199386-114.148414 0-171.272467-0.199386-14.654862 0-32.599591 0.996929-32.599591-19.539815s17.944729-19.440123 32.699284-19.440123c57.124053-0.099693 114.148414 0.099693 171.272467-0.199386 13.957011-0.099693 30.107267 4.286796 29.409417-20.237667-0.697851-24.923234-17.944729-18.443194-31.004504-18.542886-53.834186-0.598158-107.668373 0.199386-161.502559-0.498465-16.449335-0.199386-41.372569 6.579734-40.575026-20.835824 0.797544-22.929376 23.228455-17.845036 38.68086-17.944729 55.528966-0.398772 110.95824-0.299079 166.387514-0.099693 15.552098 0.099693 29.110338 0.897236 27.914022-21.932446-1.096622-21.234596-15.452405-17.047492-27.515251-17.147185-57.124053-0.299079-114.248107-0.099693-171.272467-0.199386-14.455476-0.099693-33.297441 2.193245-34.394064-17.64565-1.296008-24.325077 19.739202-21.134903 35.490686-21.334289 50.54432-0.299079 101.288025 1.495394 151.732652-1.096622 15.153327-0.797544 43.565814 16.947799 45.160901-17.545957 1.595087-35.889458-27.81433-19.141044-42.867964-19.838895-52.139407-2.193245-104.378506-0.797544-156.617605-0.897236-14.654862 0-32.599591 1.296008-32.998363-19.141044-0.398772-20.736131 17.446264-19.838895 32.200819-19.838895 57.124053-0.199386 114.248107 0.099693 171.372161-0.199386 13.657933-0.099693 30.20696 4.785261 29.808188-19.838895-0.299079-24.823542-17.346571-18.841965-30.605732-19.041351-53.834186-0.498465-107.768066-1.69478-161.502559 0.398772-30.406346 1.196315-45.958444-7.776049-43.266735-39.777482 120.827841 0 241.555989 0.797544 362.284136-0.598158 24.524463-0.299079 30.107267 5.582805 30.007574 30.007574-0.996929 303.564996-0.598158 607.030299-0.598157 910.495603-12.661003 39.578096-38.780553 65.597953-78.358649 78.358649h-58.918527z"></path></svg>