<?xml version="1.0" standalone="no"?><!DOCTYPE svg PUBLIC "-//W3C//DTD SVG 1.1//EN" "http://www.w3.org/Graphics/SVG/1.1/DTD/svg11.dtd"><svg
        class="icon" viewBox="0 0 1363 1024" version="1.1" xmlns="http://www.w3.org/2000/svg" xmlns:xlink="http://www.w3.org/1999/xlink" width="266.2109375" height="200"><defs><style type="text/css"></style></defs><path d="M668.770031 43.155047c-9.59001 0-19.180021 3.19667-27.171696 9.59001-70.459938 55.941727-201.523413 99.229969-337.515088 128-19.180021 4.795005-33.565036 22.376691-33.565037 41.556712v371.213319c0 240.016649 390.39334 380.80333 390.39334 380.80333s390.39334-140.786681 390.393341-395.188345V219.238293c0-19.180021-12.786681-36.761707-31.966702-39.958376-129.73153-30.501561-256.133195-68.861602-324.994797-124.936525-6.39334-7.991675-15.983351-11.188345-25.573361-11.188345m0 59.271592c65.531738 49.548387 169.556712 89.639958 327.925078 126.401665v350.434963c0 164.761707-225.631634 289.565036-334.318418 334.318419-108.819979-43.155047-338.314256-166.360042-338.314256-319.933403V233.623309c110.28512-23.975026 258.264308-65.664932 344.707596-131.19667zM871.891779 518.39334V516.795005" fill=""></path><path d="M630.010406 583.658689L806.360042 404.91155c2.530697-2.663892 2.530697-6.792924 0-9.456815-2.663892-2.530697-6.792924-2.530697-9.456816 0l-173.152966 175.417273-99.363163-98.031217c-2.663892-2.530697-6.792924-2.530697-9.456816 0-2.530697 2.663892-2.530697 6.792924 0 9.456816l104.291363 102.959417c2.663892 2.530697 6.792924 2.530697 9.456816 0 0.665973-0.399584 1.065557-0.932362 1.331946-1.598335z" fill=""></path></svg>