<?xml version="1.0" standalone="no"?><!DOCTYPE svg PUBLIC "-//W3C//DTD SVG 1.1//EN" "http://www.w3.org/Graphics/SVG/1.1/DTD/svg11.dtd"><svg
        class="icon" viewBox="0 0 1024 1024" version="1.1" xmlns="http://www.w3.org/2000/svg" xmlns:xlink="http://www.w3.org/1999/xlink" width="200" height="200"><defs><style type="text/css"></style></defs><path d="M730.290062 1003.381389H306.16524V653.895938a123.711664 123.711664 0 0 1 123.711664-123.711664h174.639633a123.711664 123.711664 0 0 1 123.711664 123.711664z m-362.26899-61.855832h300.413158V653.895938a61.855832 61.855832 0 0 0-61.855832-61.855832h-175.670563a61.855832 61.855832 0 0 0-61.855832 61.855832z"></path><path d="M945.342171 384.823069v474.228046a164.948885 164.948885 0 0 1-164.948885 164.948885h-536.083878a164.948885 164.948885 0 0 1-164.948885-164.948885v-474.228046h82.474442v468.042462a82.474443 82.474443 0 0 0 78.350721 82.474443h540.2076a82.474443 82.474443 0 0 0 82.474442-78.35072v-472.166185z"></path><path d="M974.00204 506.472872a41.237221 41.237221 0 0 1-28.659869-11.340236L524.310141 93.688286a33.814522 33.814522 0 0 0-48.041363 0L79.360523 494.307892a41.25784 41.25784 0 0 1-58.556855-58.144482L417.711924 34.306688a116.288964 116.288964 0 0 1 164.948885 0l419.794913 401.031977a41.237221 41.237221 0 0 1-28.453682 71.134207z"></path></svg>