<?xml version="1.0" standalone="no"?><!DOCTYPE svg PUBLIC "-//W3C//DTD SVG 1.1//EN" "http://www.w3.org/Graphics/SVG/1.1/DTD/svg11.dtd"><svg
        class="icon" viewBox="0 0 1024 1024" version="1.1" xmlns="http://www.w3.org/2000/svg" xmlns:xlink="http://www.w3.org/1999/xlink" width="200" height="200"><defs><style type="text/css"></style></defs><path d="M994.14773315 437.30114296l-407.44887611-407.44887611c-22.40934637-22.40934637-59.07980737-22.40996785-81.48977522 0l-37.88980588 37.88980588c-12.02440605 106.18865601 14.34687894 215.90545721 79.20583413 306.61551817 28.79940958-14.49168392 64.79805008-9.7684316 88.84189036 14.27540868s28.7670926 60.04248077 14.27540867 88.84189035c90.70943947 64.85957666 200.42686216 91.23024018 306.61551817 79.20583413l37.88980588-37.88980588c22.40996785-22.40996785 22.40934637-59.08042885 0-81.48977522z"></path><path d="M526.71417396 497.28582604c-25.59567725-25.59567725-29.27608518-64.72285094-11.2009443-94.30532604-62.00449493-79.40595087-101.31438391-170.73127759-118.16458658-265.26779441l-367.49637623 367.49637623c-22.40996785 22.40996785-22.40934637 59.08042885 0 81.48977522l407.44887611 407.44887611c22.40934637 22.40934637 59.07980737 22.40996785 81.48977522 0L886.28729441 626.65135693c-94.53651682-16.85020267-185.86184352-56.16009165-265.26779441-118.16458659-29.58309658 18.07576236-68.70964879 14.39473296-94.30532604-11.2009443z"></path></svg>