<?xml version="1.0" standalone="no"?><!DOCTYPE svg PUBLIC "-//W3C//DTD SVG 1.1//EN" "http://www.w3.org/Graphics/SVG/1.1/DTD/svg11.dtd"><svg
        class="icon" viewBox="0 0 1024 1024" version="1.1" xmlns="http://www.w3.org/2000/svg" xmlns:xlink="http://www.w3.org/1999/xlink" width="200" height="200"><defs><style type="text/css"></style></defs><path d="M972.8 524.8v-17.066667C972.8 256 768 46.933333 512 46.933333S55.466667 256 55.466667 507.733333c0 85.333333 25.6 162.133333 64 230.4L25.6 827.733333c-34.133333 34.133333-34.133333 85.333333 0 115.2l4.266667 4.266667c17.066667 17.066667 38.4 25.6 59.733333 25.6 21.333333 0 42.666667-8.533333 59.733333-25.6l81.066667-85.333333c76.8 59.733333 174.933333 98.133333 281.6 98.133333 136.533333 0 256-59.733333 341.333333-153.6 93.866667 0 166.4-76.8 166.4-170.666667 0-38.4-17.066667-81.066667-46.933333-110.933333zM102.4 904.533333c-4.266667 4.266667-17.066667 4.266667-21.333333 0l-4.266667-4.266666c-4.266667-4.266667-4.266667-17.066667 0-21.333334l81.066667-81.066666h4.266666l25.6 25.6-85.333333 81.066666z m21.333333-396.8c0-38.4 4.266667-72.533333 12.8-106.666666l477.866667 482.133333c-34.133333 8.533333-68.266667 12.8-102.4 12.8-213.333333 4.266667-388.266667-170.666667-388.266667-388.266667zM682.666667 857.6L162.133333 332.8c64-128 196.266667-217.6 349.866667-217.6 209.066667 0 379.733333 162.133333 392.533333 366.933333-17.066667-4.266667-34.133333-8.533333-51.2-8.533333-93.866667 0-170.666667 76.8-170.666666 170.666667 0 68.266667 38.4 123.733333 98.133333 153.6-29.866667 25.6-64 46.933333-98.133333 59.733333z m170.666666-106.666667c-46.933333 0-85.333333-29.866667-98.133333-72.533333v-4.266667c0-4.266667-4.266667-8.533333-4.266667-12.8v-12.8-4.266666c0-12.8 4.266667-29.866667 8.533334-38.4 17.066667-38.4 55.466667-64 98.133333-64 59.733333 0 106.666667 46.933333 106.666667 106.666666-4.266667 55.466667-51.2 102.4-110.933334 102.4z"></path></svg>