<?xml version="1.0" standalone="no"?><!DOCTYPE svg PUBLIC "-//W3C//DTD SVG 1.1//EN" "http://www.w3.org/Graphics/SVG/1.1/DTD/svg11.dtd"><svg
        class="icon" viewBox="0 0 1024 1024" version="1.1" xmlns="http://www.w3.org/2000/svg" xmlns:xlink="http://www.w3.org/1999/xlink" width="200" height="200"><defs><style type="text/css"></style></defs><path d="M512.2 350.6c-0.2-0.1-0.3-0.3-0.5-0.4C511.9 350.3 512.1 350.4 512.2 350.6z"></path><path d="M512 351.1 512 351.1 512 351.1Z"></path><path d="M643.2 351.1 643.2 351.1c-3.1 2.4-7 3.9-11.2 3.9L392 355c-4.2 0-8.1-1.5-11.2-3.9l0 0L96 124.5 96 942c0 27.5 22.5 50 50 50l732 0c27.5 0 50-22.5 50-50L928 124.5 643.2 351.1zM401.9 467.6c14.8 22.2 29.6 45.1 44.4 68.5L400 554.6c-12.3-23.4-25.9-46.3-40.7-68.5L401.9 467.6zM498.1 780.4c-9.9-7.4-25.3-19.7-46.3-37-11.1-9.9-19.1-16.7-24.1-20.4L427.7 910l-48.1 0L379.6 739.7c-22.2 21-46.9 40.7-74 59.2-1.2-2.5-3.1-7.4-5.6-14.8-2.5-4.9-6.8-16.7-13-35.2 61.7-40.7 109.2-88.8 142.5-144.4L303.8 604.5l0-46.3 179.5 0 0 50c-18.5 29.6-37 56.2-55.5 79.6L427.8 723l29.6-33.3c11.1 7.4 29 20.4 53.7 38.9 8.6 6.2 14.8 11.1 18.5 14.8L498.1 780.4zM735 782.2c-3.7 25.9-6.8 46.3-9.3 61.1-3.7 37-28.4 54.9-74 53.7l-42.6 0c-44.4 1.2-66-21.6-64.8-68.5L544.3 475l51.8 0 0 342.4c-1.2 23.5 8.6 34.6 29.6 33.3l20.4 0c21 1.2 32.7-9.9 35.2-33.3 2.5-21 4.3-45.6 5.6-74 9.9 4.9 25.3 9.9 46.3 14.8 1.2 1.2 2.5 1.9 3.7 1.9C736.9 765 736.2 772.4 735 782.2z"></path><path d="M511.8 350.6c0.2-0.1 0.3-0.3 0.5-0.4C512.1 350.3 511.9 350.4 511.8 350.6z"></path><path d="M878 32 146 32c-26.4 0-48.1 20.7-49.9 46.6L398.3 319l227.4 0L927.9 78.6C926.1 52.7 904.4 32 878 32z"></path></svg>