<?xml version="1.0" standalone="no"?><!DOCTYPE svg PUBLIC "-//W3C//DTD SVG 1.1//EN" "http://www.w3.org/Graphics/SVG/1.1/DTD/svg11.dtd"><svg
        class="icon" viewBox="0 0 1025 1024" version="1.1" xmlns="http://www.w3.org/2000/svg" xmlns:xlink="http://www.w3.org/1999/xlink" width="200.1953125" height="200"><defs><style type="text/css"></style></defs><path d="M110.744837 1023.233854a112.555724 112.555724 0 0 1-63.952116-19.185635 71.62637 71.62637 0 0 1-26.220367-53.080256 97.846737 97.846737 0 0 1 19.825156-74.184455c19.185635-19.825156 290.342606-276.27314 351.736637-334.469566L363.995216 511.616927a516.093575 516.093575 0 0 1-54.99882 0 205.925813 205.925813 0 0 1-46.685044 0c-8.313775 0-21.743719-8.313775-58.196426-41.568875-22.383241-22.383241-50.522172-51.161693-78.021581-81.858709a691.961894 691.961894 0 0 1-115.113809-155.403641A340.225256 340.225256 0 0 1 2.02624 109.997639C5.223846 84.416793 16.735227 37.092227 58.943623 37.092227c26.220367 0 59.475468 20.464677 99.765301 63.952116L499.573701 447.664811l35.173664-37.092227a138.776091 138.776091 0 0 1-43.487439-63.952116 103.602428 103.602428 0 0 1 15.988029-79.940145L513.643167 255.808463A1645.487941 1645.487941 0 0 1 753.463601 10.87186a45.406002 45.406002 0 0 1 71.62637 17.906592 39.650312 39.650312 0 0 1 0 40.289833c-11.511381 15.348508-175.228797 186.740178-196.972517 209.123419-5.116169 7.034733-16.62755 26.220367-10.232338 33.2551a3.837127 3.837127 0 0 0 3.197605 0 58.196425 58.196425 0 0 0 27.49941-14.708986l191.856348-191.856348a41.568875 41.568875 0 0 1 29.417973-12.790423 49.88265 49.88265 0 0 1 42.847918 30.697015 37.731748 37.731748 0 0 1-3.837127 40.929355c-14.069465 16.62755-183.542572 205.925813-191.856348 214.239588s-12.150902 14.069465-4.476648 24.301804a3.837127 3.837127 0 0 0 3.837127 0 51.801214 51.801214 0 0 0 24.301804-12.150902L940.20378 191.856348a37.092227 37.092227 0 0 1 26.220367-10.87186 63.952116 63.952116 0 0 1 54.99882 35.173664 31.336537 31.336537 0 0 1-3.197606 33.894621l-3.197606 5.75569c-47.324566 58.835947-91.451526 109.997639-127.904232 152.206036-105.520991 113.195245-145.171303 127.904232-164.996458 127.904232h-7.674254a199.530601 199.530601 0 0 1-79.940145-39.650312l-39.010791 46.685045 342.14382 339.585735a92.091047 92.091047 0 0 1 20.464677 63.952116 76.742539 76.742539 0 0 1-28.138931 57.556904 94.649131 94.649131 0 0 1-59.475468 19.825156 74.184454 74.184454 0 0 1-57.556904-22.383241c-10.87186-13.429944-200.809644-230.227617-309.528241-354.294722l-332.551002 353.01568a80.579666 80.579666 0 0 1-60.114989 23.022762z"></path></svg>