<?xml version="1.0" standalone="no"?><!DOCTYPE svg PUBLIC "-//W3C//DTD SVG 1.1//EN" "http://www.w3.org/Graphics/SVG/1.1/DTD/svg11.dtd"><svg
        class="icon" viewBox="0 0 1024 1024" version="1.1" xmlns="http://www.w3.org/2000/svg" xmlns:xlink="http://www.w3.org/1999/xlink" width="200" height="200"><defs><style type="text/css"></style></defs><path d="M201.6256 903.8848H23.9616c-12.288 0-22.2208-9.9328-22.2208-22.2208V120.0128c0-12.288 9.9328-22.2208 22.2208-22.2208h177.664c12.288 0 22.2208 9.9328 22.2208 22.2208V881.664c0 12.288-9.9328 22.2208-22.2208 22.2208zM465.6128 903.8848H287.9488c-12.288 0-22.2208-9.9328-22.2208-22.2208V120.0128c0-12.288 9.9328-22.2208 22.2208-22.2208h177.664c12.288 0 22.2208 9.9328 22.2208 22.2208V881.664c0 12.288-9.9328 22.2208-22.2208 22.2208zM1007.616 834.2528l-161.0752 74.9568c-11.1616 5.2224-24.3712 0.4096-29.4912-10.752l-321.536-690.4832c-5.2224-11.1616-0.4096-24.3712 10.752-29.4912l161.0752-74.9568c11.1616-5.2224 24.3712-0.4096 29.4912 10.752l321.4336 690.4832c5.2224 11.0592 0.4096 24.2688-10.6496 29.4912z"></path></svg>