<?xml version="1.0" standalone="no"?><!DOCTYPE svg PUBLIC "-//W3C//DTD SVG 1.1//EN" "http://www.w3.org/Graphics/SVG/1.1/DTD/svg11.dtd"><svg t="1628983772236" class="icon" viewBox="0 0 1024 1024" version="1.1" xmlns="http://www.w3.org/2000/svg" p-id="9274" xmlns:xlink="http://www.w3.org/1999/xlink" width="200" height="200"><defs><style type="text/css"></style></defs><path d="M847.4 590.5H172.3c-12.4 0-22.5-10.1-22.5-22.5 0-12.5 10.1-22.5 22.5-22.5h82.6c-9.7-32-15-66-15-101.3 0-192.6 156.1-348.8 348.8-348.8 58.4 0 113.3 14.5 161.7 39.9C610.8 180.9 510 311.9 510 466.7c0 27.2 3.9 53.4 9.8 78.8h327.7c12.4 0 22.5 10.1 22.5 22.5-0.1 12.4-10.2 22.5-22.6 22.5zM644.9 140.4c-47.2-11.7-120.2-5.7-180 22.5-81.7 46.1-180 103.3-180 286.3 0 33.4 6.4 60.2 22.5 96.2h162.5c-3.9-24.1-6.5-49-6.5-74.9-0.1-146.9 89.2-286.7 181.5-330.1z m0 0M670.1 862.6c-30 0-50.3-17.8-59.8-42.7h209.2c11.8 0 21.4-9.5 21.4-21.3s-9.6-21.3-21.4-21.3H610.4c9.5-24.8 29.8-42.7 59.8-42.7h149.4c11.8 0 21.4-9.6 21.4-21.3 0-11.8-9.6-21.4-21.4-21.4H670.1c-51.6 0-94.6 36.7-104.5 85.4H179.3c-11.7 0-21.3 9.5-21.3 21.3s9.6 21.3 21.3 21.3h386.3c9.9 48.7 53 85.4 104.5 85.4h149.4c11.8 0 21.4-9.5 21.4-21.4 0-11.7-9.6-21.3-21.4-21.3H670.1z m0 0" fill="" p-id="9275"></path></svg>