<?xml version="1.0" standalone="no"?><!DOCTYPE svg PUBLIC "-//W3C//DTD SVG 1.1//EN" "http://www.w3.org/Graphics/SVG/1.1/DTD/svg11.dtd"><svg t="1628981696801" class="icon" viewBox="0 0 1024 1024" version="1.1" xmlns="http://www.w3.org/2000/svg" p-id="5244" xmlns:xlink="http://www.w3.org/1999/xlink" width="200" height="200"><defs><style type="text/css"></style></defs><path d="M273.3 710.7l-58.6 58.6c-10.8 10.8-10.8 28.3 0 39.1s28.3 10.8 39.1 0l58.6-58.6c10.8-10.8 10.8-28.3 0-39.1s-28.3-10.8-39.1 0zM256.5 293c10.9 10.9 28.6 10.9 39.4 0 10.9-10.9 10.9-28.6 0-39.4l-59.2-59.2c-10.9-10.9-28.6-10.9-39.4 0-10.9 10.9-10.9 28.6 0 39.4l59.2 59.2z m-78.3 189.2H94.4c-15.5 0-27.9 12.4-27.9 27.9 0 15.5 12.6 27.9 27.9 27.9h83.7c15.5 0 27.9-12.4 27.9-27.9 0.1-15.3-12.5-27.9-27.8-27.9z m334.8-279c15.5 0 27.9-12.4 27.9-27.9V91.6c0-15.5-12.4-27.9-27.9-27.9-15.5 0-27.9 12.4-27.9 27.9v83.7c0 15.4 12.5 27.9 27.9 27.9z m268.5 77.5l58.6-58.6c10.8-10.8 10.8-28.4 0-39.1-10.8-10.8-28.3-10.8-39.1 0l-58.6 58.6c-10.8 10.8-10.8 28.4 0 39.1 10.8 10.9 28.3 10.9 39.1 0z m150.1 201.5h-83.7c-15.5 0-27.9 12.4-27.9 27.9 0 15.5 12.4 27.9 27.9 27.9h83.7c15.5 0 27.9-12.4 27.9-27.9 0-15.3-12.5-27.9-27.9-27.9z m-162.1 245c-10.9-10.9-28.6-10.9-39.4 0-10.9 10.9-10.9 28.6 0 39.4l59.2 59.2c10.9 10.9 28.6 10.9 39.4 0 10.9-10.9 10.9-28.6 0-39.4l-59.2-59.2zM513 258.9c-138.8 0-251.4 112.5-251.4 251.4S374.2 761.6 513 761.6s251.4-112.5 251.4-251.4S651.8 258.9 513 258.9z m0 558.1c-15.5 0-27.9 12.4-27.9 27.9v83.7c0 15.5 12.4 27.9 27.9 27.9 15.5 0 27.9-12.4 27.9-27.9V845c0-15.4-12.4-28-27.9-28z m0 0" p-id="5245"></path></svg>