<?xml version="1.0" standalone="no"?><!DOCTYPE svg PUBLIC "-//W3C//DTD SVG 1.1//EN" "http://www.w3.org/Graphics/SVG/1.1/DTD/svg11.dtd"><svg
        class="icon" viewBox="0 0 1025 1024" version="1.1" xmlns="http://www.w3.org/2000/svg" xmlns:xlink="http://www.w3.org/1999/xlink" width="200.1953125" height="200"><defs><style type="text/css"></style></defs><path d="M1018.88 683.51999999C985.6 394.23999999 926.72 186.87999999 739.84 186.87999999c-94.72 0-143.36 97.28-227.84 104.96-87.04-7.68-133.12-104.96-227.84-104.96-186.88 0-245.76 207.36-276.48 494.08-17.92 153.6-2.56 281.6 92.16 281.6 133.12 0 138.24-120.32 232.96-176.64 35.84-17.92 115.2-25.6 181.76-28.16 66.56 2.56 145.92 10.24 181.76 28.16 94.72 56.32 99.84 176.64 232.96 176.64C1021.44 965.11999999 1034.24 837.11999999 1018.88 683.51999999L1018.88 683.51999999zM286.72 657.91999999C212.48 657.91999999 153.6 596.47999999 153.6 524.79999999s58.88-133.12 133.12-133.12 133.12 58.88 133.12 133.12S358.4 657.91999999 286.72 657.91999999L286.72 657.91999999zM883.2 550.39999999l-104.96 0 0 104.96-51.2 0L727.04 550.39999999l-104.96 0 0-51.2 104.96 0L727.04 396.79999999l51.2 0L778.24 499.19999999l104.96 0L883.2 550.39999999 883.2 550.39999999 883.2 550.39999999zM883.2 550.39999999"></path><path d="M209.92 524.79999999c0 20.48 7.68 38.4 23.04 53.76 12.8 12.8 33.28 23.04 53.76 23.04 20.48 0 38.4-7.68 53.76-23.04 12.8-12.8 23.04-33.28 23.04-53.76 0-20.48-7.68-38.4-23.04-53.76-12.8-12.8-33.28-23.04-53.76-23.04-20.48 0-38.4 7.68-53.76 23.04C217.6 483.83999999 209.92 504.31999999 209.92 524.79999999L209.92 524.79999999zM209.92 524.79999999"></path></svg>