<?xml version="1.0" standalone="no"?><!DOCTYPE svg PUBLIC "-//W3C//DTD SVG 1.1//EN" "http://www.w3.org/Graphics/SVG/1.1/DTD/svg11.dtd"><svg
        class="icon" viewBox="0 0 1164 1024" version="1.1" xmlns="http://www.w3.org/2000/svg" xmlns:xlink="http://www.w3.org/1999/xlink" width="227.34375" height="200"><defs><style type="text/css"></style></defs><path d="M582.450306 0h3.007161c7.389345 1.609782 11.704454 8.328384 15.091703 14.476856 6.640349 12.632314 10.653624 26.41607 14.286813 40.155109 2.09048 8.663755 4.572227 17.316332 5.064104 26.281921 0.681921-0.670742 1.475633-1.442096 1.240874-2.515283-1.296769-8.540786-0.92786-17.215721-1.900437-25.778865-0.827249-10.642445-2.79476-21.139563-4.907598-31.580786 8.619039 2.314061 12.498166 11.022533 15.639476 18.512489 8.406638 21.419039 11.883319 44.324891 15.829519 66.873013-0.804891-21.251354-3.756157-42.368559-5.198253-63.586375 6.707424 7.031616 9.949345 16.433188 12.68821 25.544104 7.534672 26.673188 9.18917 54.486638 11.313188 81.975896 0.827249-21.117205 0.983755-42.256769 0.771353-63.396332 10.284716 13.604891 14.521572 30.619389 17.517555 47.108471 1.933974 11.436157 2.884192 23.028821 3.107773 34.621485 12.341659-19.507424 23.744279-39.607336 33.917205-60.310917 8.093624-16.969782 15.740087-34.33083 19.976943-52.70917 1.676856-7.065153 2.157555-14.342707 2.090481-21.586725 11.000175 13.090655 15.952489 30.474061 15.181135 47.421485-0.92786 24.750393-11.346725 47.868646-23.38655 69.086462 12.207511-11.849782 23.319476-24.851004 33.235284-38.668297 6.718603-9.580437 12.889432-19.842795 15.628296-31.346026 5.947249 8.004192 9.513362 17.785852 9.345677 27.824629-0.167686 16.891528-7.68 32.676332-16.612052 46.650131-8.328384 12.878253-18.478952 24.482096-29.255546 35.359301 13.303057-8.73083 26.080699-18.378341 37.460961-29.535021 8.764367-8.641397 16.52262-18.557205 20.983057-30.13869 4.035633 11.603843 4.4269 24.448559 0.558952 36.153013-5.544803 17.495197-17.797031 31.904978-31.200699 44.034236-9.233886 8.328384-19.42917 15.527686-30.049258 21.98917 23.420087-7.378166 45.923493-18.065328 65.475633-33.022882 1.419738 11.223755-6.461485 20.36821-13.806113 27.746375-18.288908 17.752314-40.199825 31.178341-62.077205 44.000699 21.743231-3.84559 44.067773-8.037729 63.407511-19.227948-0.883144 11.827424-10.575371 19.943406-19.496245 26.393712-18.84786 13.023581-40.166288 21.87738-61.518253 29.848035 20.345852-1.900437 40.680524-3.935022 60.97048-6.28262-10.854847 12.632314-26.382533 19.753362-41.295371 26.404891-11.905677 5.153537-24.146725 9.524541-36.577817 13.235982 20.938341-1.084367 41.865502-2.336419 62.815022-3.387249-8.272489 11.827424-21.720873 18.277729-34.464978 24.102009-15.952489 6.785677-32.519825 12.062183-49.288384 16.388472 12.967686 2.246987 26.013624 4.002096 39.0931 5.544803 10.049956 1.05083 20.178166 1.889258 30.295197 1.151441-15.136419 12.934148-34.900961 18.512489-54.005939 22.469869 9.882271 3.096594 19.652751 9.513362 23.129432 19.731005 4.88524 13.168908 1.140262 27.936419-6.461485 39.283144-12.91179 19.540961-32.497467 33.257642-51.926637 45.699912 4.77345 10.184105 8.999127 20.670044 14.801048 30.328734 2.638253 4.248035 5.522445 8.563144 9.681048 11.492053 3.018341 2.291703 6.9869 2.191092 10.575371 2.604716 21.75441 1.922795 43.75476 8.283668 61.194061 21.855022 10.407686 7.925939 18.6131 18.367162 25.231092 29.579738 19.831616-5.8131 41.027074-4.248035 60.948122 0.245938 28.417118 6.617991 54.855546 19.373275 80.500262 32.944629 16.254323-8.663755 34.297293-14.175022 52.731529-15.214672 19.540961-1.330306 38.925415 2.235808 58.119825 5.399476 10.284716 1.408559 21.117205 2.861834 31.17834-0.592489 7.612926-2.492926 12.900611-8.898515 19.775721-12.699389 6.953362-3.990917 15.147598-7.422882 23.285939-5.488908 7.858865 2.358777 13.794934 8.976769 16.846812 16.422008 4.013275 9.625153 5.310044 20.099913 8.932052 29.870393 4.359825 13.414847 13.996157 24.057293 21.564367 35.694673 3.286638 5.902533 5.690131 12.252227 8.294847 18.478952 1.788646 4.024454 1.710393 8.507249 1.743931 12.833537 0.089432 1.598603-1.05083 2.884192-1.63214 4.281572-0.23476 3.454323-0.681921 7.311092-4.77345 8.048908 0.380087 3.990917 1.497991 8.306026-0.223581 12.140437-1.933974 4.046812-7.881223 3.566114-10.854847 0.994935-3.856769-3.767336-4.180961-9.804017-8.082445-13.560175-6.562096-6.606812-13.638428-12.710568-19.820437-19.686288-4.270393-4.829345-7.545852-10.608908-12.822358-14.488035-9.412751-7.087511-21.06131-10.027598-31.468996-15.270568-3.61083-1.699214-6.852751-4.19214-10.653624-5.421834-9.5469 1.263231-18.434236 5.343581-27.4669 8.473712-17.886463 6.953362-35.515808 14.54393-53.022183 22.369257-8.999127 4.091528-17.472838 9.18917-26.06952 14.029695-6.092576 3.566114-12.665852 6.372052-19.66393 7.523493-14.07441 2.548821-28.39476 3.2531-42.636856 4.292751-26.852052 2.157555-53.793537-0.201223-80.533799-2.839476-12.855895-1.419738-25.700611-3.02952-38.51179-4.907598-17.92 34.867424-35.515808 69.913712-52.228472 105.373624-2.504105 5.287686-4.874061 10.631266-7.042795 16.075459 21.474934-4.225677 43.63179-8.048908 65.486813-4.404542 16.589694 2.459389 31.580786 10.58655 47.868646 14.219738 20.547074 4.661659 42.200873 4.616943 62.647336-0.503056 5.969607-1.688035 12.542882-0.603668 17.405764 3.297816 6.975721 4.561048 10.172926 12.844716 11.156682 20.815371 1.755109 12.520524-0.089432 25.242271 1.643318 37.751616 1.945153 10.810131 8.004192 20.234061 13.370131 29.624454 6.059039 10.564192 13.213624 21.016594 15.225852 33.28 1.106725 4.806987 0.626026 9.748122 0.380087 14.622184-0.301834 5.343581 4.024454 10.072314 2.671791 15.482969-0.547773 2.492926-2.716507 4.06917-4.53869 5.634236h-4.89642c-1.63214-1.475633-3.152489-3.02952-4.684017-4.583406-1.553886 0.23476-3.096594 0.860786-4.672839 0.659563-1.855721-1.129083-3.286638-2.79476-4.795807-4.30393-1.933974 0.122969-3.856769 0.34655-5.779564 0.301834-2.32524-0.92786-4.002096-2.884192-5.880174-4.438078-4.113886-0.23476-6.237904-3.968559-8.674935-6.707424-3.48786-4.002096-5.175895-9.099738-7.434061-13.794935-2.112838-4.404541-7.199301-6.204367-9.625153-10.362969-3.320175-5.58952-5.265328-12.129258-10.24-16.589694-9.65869-8.932052-17.551092-19.529782-24.817467-30.440524-47.656245 4.784629-95.30131 9.725764-142.957555 14.521572-12.017467 1.699214-24.157904-0.447162-35.851179-3.163668-17.115109-3.990917-32.653974-13.079476-46.113537-24.169083-13.526638-11.201397-21.698515-27.422183-26.594934-44.000699-6.908646-21.351965-5.913712-44.190742-4.057992-66.246987 3.342533-36.454847 9.513362-72.585502 13.582533-108.950917-19.395633-1.408559-37.718079-9.222707-54.318952-18.948472-27.153886-16.511441-51.267074-40.892926-60.523319-71.959476-14.230917-8.920873-23.934323-23.140611-32.665152-37.136768-9.625153 4.091528-19.250306 8.160699-28.841922 12.308122-3.532576 1.576245-7.355808 2.246987-11.145502 2.850655-14.286812 2.246987-28.540087 4.717555-42.838079 6.9869-4.382183 0.726638-9.133275 0.961397-12.721746 3.901484-8.3731 6.04786-17.405764 11.078428-26.483144 15.986027 1.833362 61.55179 3.622009 123.092402 5.500087 184.633013l-1.665677-0.067074c-2.571179-60.7469-5.298865-121.48262-7.925939-182.22952-20.837729 10.262358-44.436681 11.436157-67.174847 13.213624-15.002271 1.263231-30.116332 1.430917-45.02917 3.622009-9.647511 1.352664-15.605939 9.882271-23.878428 14.063231-10.664803 5.567162-21.430218 11.257293-33.089957 14.454498-1.878079 11.111965-1.710393 22.492227-0.055895 33.626551 1.699214 11.357904 3.84559 22.872314 8.909695 33.291179 6.86393 14.208559 17.618166 26.226026 29.926288 35.974148 18.277729 14.54393 39.361397 25.13048 60.847511 34.051354 16.656769 7.21048 34.174323 12.520524 49.936768 21.698515 10.47476 5.388297 19.831616 12.621135 30.082795 18.322445 3.2531 2.44821 7.221659 4.997031 7.903581 9.368035 1.173799 7.232838-7.199301 13.582533-13.951441 11.089607-4.482795-1.27441-6.942183-7.154585-4.438079-11.134323 2.079301 1.296769 4.125066 2.716507 6.427948 3.588472 2.817118-0.704279 4.013275-4.326288 1.755109-6.327336-4.013275-3.979738-9.155633-6.550917-13.929083-9.491005-17.629345-9.837555-36.242445-17.975895-55.526288-23.956681-21.542009-5.801921-43.195808-12.341659-62.658516-23.498341a144.23979 144.23979 0 0 1-34.722096-26.729083c-13.839651-14.622183-23.755459-32.687511-29.613275-51.904279-4.281572-14.096769-8.350742-29.233188-4.561048-43.922445-2.157555-1.520349-4.806987-2.962445-5.377118-5.779564-1.140262-2.179913 0.883144-3.935022 1.811005-5.70131-3.007162-0.558952-6.606812-1.375022-7.724716-4.661659-1.598603-3.007162 0.134148-6.092576 2.023406-8.440175-3.733799-0.614847-7.344629-2.973624-8.004192-6.942183-1.006114-2.694148 1.553886-4.751092 2.705327-6.852751-34.845066 10.340611-69.835459 20.234061-104.747598 30.339912 2.582358 2.314061 4.851703 5.991965 2.56 9.334498-2.168734 4.125066-7.44524 2.571179-10.94428 1.408559-7.009258-2.593537-14.119127-5.23179-21.698515-5.433013v-0.044716c3.364891-2.414672 6.919825-4.65048 9.736943-7.724716 3.510218-3.543755 6.003144-8.071266 10.038778-11.078428 2.884192-2.202271 7.691179-0.58131 8.574323 2.951266 0.447162 2.056943 0.413624 4.180961 0.536594 6.28262 35.102183-9.032664 70.081397-18.646638 105.295371-27.187423-3.353712-1.542707-6.998079-4.449258-5.980786-8.663756 1.766288-6.159651 8.775546-8.004192 13.96262-10.35179-3.554934-6.17083-8.283668-11.503231-13.50428-16.321398-11.011354-10.519476-16.52262-25.164017-20.949519-39.394934-5.757205-17.260437-6.573275-36.42131-0.447162-53.704105 11.447336-33.548297 38.411179-58.712314 51.915459-91.254498 6.338515-15.538865 12.017467-31.468996 14.991091-48.036332 0.324192-2.157555 0.637205-4.4269-0.11179-6.51738-1.50917-1.654498-3.61083-0.212402-4.505153 1.307948-0.994934 2.56-1.330306 5.310044-2.034585 7.959476-2.615895-3.521397-5.332402-8.004192-3.48786-12.498166 2.179913-5.980786 10.228821-8.428996 15.259388-4.404541 5.131179 3.409607 3.856769 10.295895 2.548821 15.371179 45.878777 58.1869 91.869345 116.284367 137.848734 174.393013 8.507249-1.352664 17.126288-1.699214 25.722969-1.609782 4.337467-7.255197 10.944279-12.68821 17.349869-18.03179 15.281747-12.431092 31.782009-23.241223 48.170481-34.107249 9.278603-8.272489 16.947424-18.26655 23.587773-28.74131 3.420786-5.779563 7.232838-12.744105 4.684017-19.585677-3.443144-9.982882-12.241048-16.455546-20.390568-22.469869-7.020437 2.392314-13.906725 5.175895-20.625327 8.328384-4.695197 2.21345-9.535721 4.449258-14.801048 4.77345-6.617991 0.659563-13.548996-2.135197-17.584629-7.467598-2.492926-3.197205-4.013275-7.188122-7.266376-9.736944-3.320175-2.67179-7.881223-2.962445-11.302008-5.410655-3.677904-4.77345-1.28559-11.111965 1.307947-15.795982-2.895371 2.280524-6.025502 4.840524-9.893449 4.918777-2.515284 0.11179-4.661659-1.889258-5.198254-4.248035-1.576245-5.030568-2.280524-11.268472-7.266375-14.208559-6.003144-1.497991-12.397555 1.240873-18.38952-0.704279-3.465502-1.084367-5.768384-4.851703-5.153537-8.440175 0.961397-4.639301 3.912664-8.585502 4.795808-13.25834 1.151441-5.399476-0.514236-10.843668-2.369957-15.863057-1.766288-4.672838-3.532576-9.412751-6.28262-13.61607-3.476681-5.488908-10.608908-7.322271-13.638428-13.235983-8.339563-14.353886-11.581485-31.144803-12.151615-47.58917-9.300961-4.080349-18.400699-9.066201-25.622358-16.332576-10.575371-10.117031-17.282795-24.336769-17.595808-39.048385 3.644367 5.70131 7.534672 11.592664 13.526637 15.102882 10.70952 6.796856 24.023755 7.020437 36.220088 5.321223-3.644367-2.526463-7.780611-5.377118-8.719651-10.027598-1.620961-6.830393 2.32524-13.135371 6.070218-18.478952 3.622009 4.404541 6.975721 9.938166 12.766463 11.648559 2.861834 1.028472 4.661659-1.945153 6.05904-3.912664 6.584454-10.530655 11.201397-22.413974 19.675109-31.681397 2.369956-2.750044 5.880175-3.879127 8.976768-5.544804 2.973624-2.21345 5.242969-5.410655 8.753188-6.886288 4.997031-2.068122 10.508297-1.8669 15.807162-2.235808 1.542707-5.58952 3.823231-11.201397 8.149519-15.23703 8.49607-7.892402 20.032838-13.481921 31.871441-11.972751 8.820262 0.58131 18.724891 4.30393 26.896769-0.70428 0.245939-6.014323-3.118952-11.268472-5.198253-16.690306 6.483843 4.348646 11.111965 10.743057 14.968733 17.405765 5.500087-1.833362 11.29083-3.197205 17.137467-2.582359 8.619039 0.514236 16.544978 4.527511 23.50952 9.390394-8.440175 0.838428-17.014498 1.240873-25.186375 3.72262 8.909694 3.901485 18.210655 6.763319 27.500436 9.580436 9.926987 3.879127 10.977817 16.612052 19.529782 22.078603 1.922795 1.307948 3.867948 2.884192 4.438079 5.265327 3.152489 10.24 1.945153 21.419039 5.980786 31.435459 3.800873 7.322271 11.044891 12.408734 13.96262 20.256419 2.001048 5.097642-2.112838 10.944279 1.196157 15.695371 5.746026 8.987948 18.478952 12.33048 27.835808 7.053974-1.844541 3.812052-3.644367 7.847686-7.009258 10.58655-4.751092 4.091528-11.134323 5.12-16.980961 6.785677 5.198253 8.171878 9.994061 17.383406 18.657817 22.436332 5.097642 3.297817 11.313188 3.767336 17.182183 2.839476-5.444192 5.310044-12.118079 10.519476-20.155807 10.195284-5.93607 0.156507-10.82131-3.61083-15.460612-6.785677-0.726638 3.990917-1.576245 8.26131-0.011179 12.173974 2.56 6.830393 7.221659 12.554061 11.346725 18.478952-3.789694-0.603668-7.702358-1.16262-11.078428-3.107773-6.662707-3.577293-10.329432-10.564192-12.855895-17.383406-0.380087 9.323319 1.375022 19.55214 8.686113 26.047161 12.45345 11.279651 29.90393 15.147598 46.292402 15.427075 7.56821-0.279476 16.578515-1.073188 21.486114-7.68 5.12-7.132227 5.846638-16.321397 6.04786-24.828647-0.201223-9.379214-0.737817-18.959651-3.644367-27.947598-2.32524-4.65048-6.740961-7.747074-10.161747-11.547948-10.743057-11.179039-20.312314-25.029869-21.005414-41.038253-0.81607-14.611004 6.472664-27.802271 12.464628-40.61345 9.356856-19.19441 19.876332-37.93048 26.963843-58.142183 4.806987-13.124192 3.979738-27.332751 3.219564-41.038253-2.124017-32.653974-7.747074-64.939039-13.03476-97.190568M180.541485 362.491528c-4.605764 19.071441-11.346725 37.617467-19.708647 55.347424-15.158777 28.797205-33.928384 56.90131-38.936593 89.71179-3.454323 20.815371 2.940087 42.089083 14.07441 59.640175 5.276507 8.183057 12.587598 14.711616 19.485066 21.486114 6.942183-0.324192 13.984978-0.614847 20.681222-2.68297 5.265328-1.699214 10.921921-1.117904 16.198428 0.201223 6.148472 1.129083 12.677031 4.113886 18.836681 1.598602 7.780611-3.744978 14.700437-9.010306 21.989171-13.582532 24.973974-16.835633 51.993712-31.826725 81.852925-37.662184-44.816769-58.030393-89.644716-116.049607-134.472663-174.057642z"></path><path d="M350.37345 805.013799l1.598602-0.089432c-0.324192 7.322271 1.497991 14.924017-0.402445 22.056244-0.715459-7.311092-0.748996-14.644541-1.196157-21.966812z"></path></svg>