<?xml version="1.0" standalone="no"?><!DOCTYPE svg PUBLIC "-//W3C//DTD SVG 1.1//EN" "http://www.w3.org/Graphics/SVG/1.1/DTD/svg11.dtd"><svg t="1628982947482" class="icon" viewBox="0 0 1024 1024" version="1.1" xmlns="http://www.w3.org/2000/svg" p-id="8802" xmlns:xlink="http://www.w3.org/1999/xlink" width="200" height="200"><defs><style type="text/css"></style></defs><path d="M1023.95904 470.7584c0-0.32768-0.09216-0.64-0.1024-0.96256a23.296 23.296 0 0 0-0.26624-2.66752 25.6256 25.6256 0 0 0-0.4096-2.2528 22.33856 22.33856 0 0 0-0.74752-2.39616c-0.256-0.7424-0.512-1.46944-0.8448-2.176a21.2992 21.2992 0 0 0-1.17248-2.176c-0.4096-0.68608-0.80384-1.36192-1.28-2.00704a21.43744 21.43744 0 0 0-1.52064-1.83808 22.8352 22.8352 0 0 0-1.79712-1.86368c-0.24576-0.2304-0.42496-0.50176-0.6912-0.72704l-175.60576-149.0688a327.2192 327.2192 0 0 0 1.81248-35.49184c0-89.10336-87.96672-190.68416-165.12512-190.68416-77.15328 0-165.10464 101.57568-165.10464 190.68416 0 12.56448 0.6656 24.18688 1.93536 35.00032L18.02752 446.76096c-0.42496 0.128-0.78336 0.34304-1.2032 0.4864a26.8288 26.8288 0 0 0-2.54976 1.03424 26.70592 26.70592 0 0 0-4.08064 2.46272 28.16512 28.16512 0 0 0-3.54816 3.20512 23.33184 23.33184 0 0 0-1.536 1.87392 23.02464 23.02464 0 0 0-2.47296 4.0448 23.64416 23.64416 0 0 0-1.68448 4.5568 23.74144 23.74144 0 0 0-0.77312 4.9408c-0.0256 0.47616-0.13824 0.91648-0.13824 1.39264v421.06368a25.01632 25.01632 0 0 0 25.00608 25.00608h973.90592a25.01632 25.01632 0 0 0 25.0112-25.00608V470.7584z m-240.48128 201.05216c-14.76608 28.24704-43.6736 45.7728-75.42272 45.7728s-60.66176-17.53088-75.42784-45.7728c-23.40352-44.77952-69.2736-72.6016-119.72096-72.6016-50.432 0-96.30208 27.82208-119.7312 72.6016-14.76608 28.24704-43.65824 45.7728-75.4176 45.7728-31.73888 0-60.6464-17.53088-75.41248-45.7728-23.40864-44.77952-69.28384-72.6016-119.7312-72.6016-26.31168 0-51.28192 7.71584-72.56576 21.31456V495.75936h923.89888v123.48928a134.62016 134.62016 0 0 0-70.73792-20.03968c-50.45248 0-96.31744 27.82208-119.7312 72.6016zM676.21888 126.45376c45.45536 0 115.11808 75.45344 115.11808 140.67712 0 90.08128-30.0032 90.08128-59.00288 90.08128-8.49408 0-17.26976-0.51712-26.13248-1.04448-9.99424-0.5888-20.06528-1.15712-29.98272-1.15712-8.29952 0-17.024 0.47104-25.9328 0.9728-8.2688 0.47104-16.70144 0.9472-25.01632 0.9472-30.06464 0-64.1536 0-64.1536-89.80992 0-66.56512 68.61312-140.66688 115.10272-140.66688z m-50.94912 280.49408c9.2672 0 18.62656-0.512 27.83744-1.024 17.51552-0.97792 33.69984-0.768 50.18624 0.1792 9.85088 0.56832 19.60448 1.12128 29.03552 1.12128 46.06976 0 76.47744-16.2304 93.20448-50.88768l105.32864 89.4208H199.76192l325.79072-95.18592c17.16736 38.08256 49.87904 56.37632 99.71712 56.37632zM50.04288 866.82624v-176.48128c15.4112-25.43104 42.64448-41.12896 72.57088-41.12896 31.75424 0 60.65152 17.536 75.4176 45.77792 23.424 44.77952 69.2992 72.59648 119.72096 72.59648 50.45248 0 96.32256-27.81696 119.7312-72.59648 14.76608-28.24704 43.67872-45.77792 75.4176-45.77792 31.75936 0 60.6464 17.536 75.41248 45.77792 23.424 44.77952 69.31968 72.59648 119.74656 72.59648 50.43712 0 96.3072-27.81696 119.73632-72.59648 14.76608-28.24704 43.65824-45.77792 75.41248-45.77792 28.74368 0 55.04512 14.46912 70.73792 38.15936v179.45088H50.04288z m0 0" fill="" p-id="8803"></path></svg>