<?xml version="1.0" standalone="no"?><!DOCTYPE svg PUBLIC "-//W3C//DTD SVG 1.1//EN" "http://www.w3.org/Graphics/SVG/1.1/DTD/svg11.dtd"><svg t="1628983964408" class="icon" viewBox="0 0 1276 1024" version="1.1" xmlns="http://www.w3.org/2000/svg" p-id="10655" xmlns:xlink="http://www.w3.org/1999/xlink" width="249.21875" height="200"><defs><style type="text/css"></style></defs><path d="M1001.110725 522.666753c-0.948141-2.782249-0.948141-3.730389-1.911824-4.662987-17.905869-37.723563-36.759879-75.524842-54.665748-113.248404-2.859965-6.605898-7.554039-6.605898-13.211796-4.77179-38.74942 11.377688-77.421123 21.760605-116.186086 32.159065-5.564498 1.896281-9.325973 4.77179-10.336287 10.336288-8.440006 28.335416-16.957728 55.707148-25.475451 84.042564-3.745933 13.211796-7.554039 27.371732-12.248112 41.547212 79.270774-15.139164 156.691897-30.247241 234.035304-45.370861zM432.024281 89.506372c2.797792 2.782249 4.662987 3.730389 5.580041 5.657758l345.620577 274.634375c2.782249 2.859965 9.325973 3.808106 14.08222 2.859965 26.501308-6.605898 52.924899-14.17548 79.348491-21.760605 3.730389-0.948141 7.554039-2.859965 13.211795-3.745932-28.335416-21.760605-54.759008-41.531668-81.182599-62.313047-91.518886-70.815225-183.115489-140.604593-274.634375-211.388731-2.859965-1.818565-7.554039-4.77179-10.336287-4.77179-30.247241 5.735474-59.530797 13.305055-91.612146 20.859094z m272.738094 464.355762c1.896281-4.77179 3.808106-7.569582 3.808106-10.336287 11.299971-36.853138 21.651802-74.607788 33.993173-111.414296 3.730389-10.351831 0.870424-15.12362-7.569581-21.760605-96.368392-76.410809-192.581352-152.883792-287.923888-228.48635-24.511767-19.817694-49.023534-38.671703-73.613017-58.489397a34.335126 34.335126 0 0 0-3.730389 8.517723c-14.17548 34.848054-28.350959 69.789368-43.52121 104.730682-3.745933 8.517722-2.782249 13.211796 4.77179 18.854009 101.031379 80.218915 201.985042 161.401514 302.969791 242.56857 23.548083 17.905869 46.163569 36.853138 70.830769 55.707148zM562.308131 13.03339c24.511767 17.983585 272.722551 211.388732 410.482722 318.077868a51.774696 51.774696 0 0 1 13.211795 16.071761c29.283557 60.416765 59.530797 120.817986 87.772954 182.167348 10.351831 22.599942 1.911825 42.417636-26.423592 47.11171-40.583528 7.554039-82.115196 16.071761-122.636551 23.641342-50.950902 9.465863-101.93289 18.85401-151.98228 29.361274-14.159936 2.782249-27.371732 4.662987-41.547212 8.440006-12.248112 3.823649-20.688118-0.870424-29.20584-7.476322l-139.73417-111.414297c-98.124784-78.322634-195.379144-156.707441-293.503928-235.014531-16.071761-13.211796-18.85401-23.641343-11.299971-42.495353 23.563626-56.577572 47.189426-114.196545 69.789368-170.774117a44.889019 44.889019 0 0 1 35.749565-31.195381c39.821907-8.486636 115.284575-27.464992 154.919963-35.904998 13.211796-2.859965 16.942185-4.77179 26.423591-2.859965 7.554039 2.859965 12.248112 8.517722 17.905869 12.263655z m-40.583528 936.265563c82.03748-15.994044 162.334111-32.065805 242.47531-48.184197-20.688118-53.795324-40.583528-105.694366-61.271646-157.577865q-67.799827 19.258135-134.962379 40.583528a12.776584 12.776584 0 0 0-8.533266 8.440006c-12.248112 50.935358-24.589483 102.896574-37.801279 156.769614z m-59.530798-16.942186c2.859965-12.341372 4.77179-23.641343 7.554039-33.97763l28.335416-118.983878c1.911825-5.564498 0-8.440006-3.823649-12.248112-107.590647-95.342535-214.248697-191.555495-320.87566-286.89803-14.159936-12.248112-28.319873-25.459908-43.365777-38.671703-19.89541 47.997677-38.764963 95.249276-57.618973 142.438701-0.948141 2.875508 1.911825 8.517722 3.823649 11.393231 15.994044 15.12362 33.029489 29.20584 49.909502 44.313917l268.106193 234.066391c22.677659 17.983585 44.391634 37.801279 67.95526 58.567113z m-283.21427-530.492457c17.097618 15.12362 32.143522 29.283557 48.184196 43.443493 54.743464 49.116794 110.450612 98.124784 165.20962 148.189719 47.189426 42.495352 95.249276 84.912988 142.438701 128.356481 4.77179 3.745933 8.517722 4.77179 15.12362 2.797792 50.935358-15.12362 101.948433-31.086578 153.878563-45.293144 28.335416-8.517722 40.583528-0.948141 50.935358 24.605026 26.501308 68.825684 52.924899 136.874204 79.348491 205.715432 9.465863 24.511767 0 42.495352-25.475451 48.184196-90.632919 17.905869-180.302154 35.749565-270.888442 53.795323-17.905869 3.745933-34.941314 7.569582-52.847183 10.351831-9.465863 1.911825-17.905869-1.834108-25.475451-8.440006L286.632355 863.437824c-73.690734-64.224871-146.35561-128.372025-219.968627-191.633212-17.905869-15.12362-34.925771-30.247241-52.847183-46.163569-15.12362-13.289512-17.097618-23.625799-9.481407-42.495352C31.737957 515.998682 59.109689 449.053736 85.533281 383.0103a41.780361 41.780361 0 0 1 26.423591-25.47545c37.801279-11.299971 75.524842-23.563626 113.248404-34.941314 14.159936-4.77179 27.371732-3.730389 37.80128 8.517722 15.108077 16.957728 7.554039 42.495352-15.123621 50.935359-17.905869 6.605898-36.775422 11.377688-54.759007 17.097618-3.730389-0.963684-8.517722 0.948141-14.159937 2.782248z m782.449173 461.635687c78.307091-16.071761 155.728214-33.029489 233.149337-49.101251-25.459908-46.241285-50.127107-90.555202-74.607788-134.977922-0.963684-2.782249-6.683614-4.77179-10.429547-3.73039-34.941314 6.605898-70.830768 14.159936-105.694366 20.688118-7.569582 1.911825-10.351831 4.77179-12.263655 12.325828-5.71993 29.2991-12.325828 59.453081-17.983585 88.736638-3.745933 20.703661-7.554039 42.417636-12.248112 66.058979z m172.748115-255.795909c14.159936 0 22.677659 7.569582 29.283557 19.817693 28.335416 50.935358 56.670832 102.896574 84.912989 153.878563 6.605898 12.263655 13.211796 23.641343 19.89541 35.749565 12.263655 23.641343 1.834108 45.355318-23.6258 50.14265-77.436666 15.885241-154.826703 32.905143-232.232282 48.992447-29.20584 6.605898-59.437538 14.159936-88.596748 17.90587-17.983585 2.859965-36.853138-16.009588-33.02949-36.775422l39.635388-194.415461c2.782249-12.248112 4.662987-23.641343 6.605897-35.889454 2.782249-16.071761 13.196252-24.511767 29.205841-28.335416 42.495352-8.424463 84.990705-16.942185 128.356481-25.459908a297.125515 297.125515 0 0 0 39.635387-5.657757z" fill="#515151" p-id="10656"></path></svg>