<?xml version="1.0" standalone="no"?><!DOCTYPE svg PUBLIC "-//W3C//DTD SVG 1.1//EN" "http://www.w3.org/Graphics/SVG/1.1/DTD/svg11.dtd"><svg t="1628996791783" class="icon" viewBox="0 0 1024 1024" version="1.1" xmlns="http://www.w3.org/2000/svg" p-id="2727" xmlns:xlink="http://www.w3.org/1999/xlink" width="200" height="200"><defs><style type="text/css"></style></defs><path d="M209.300307 1023.374431c69.153838 3.412196 141.947351-25.818949 190.912363-76.774409 48.965012-51.012329 77.513718-101.228479 70.575586-164.012884-6.938132-62.727535-99.124292-96.451405-168.27813-99.863601-69.096968-3.412196-141.890481 25.818949-190.855492 76.774408-48.965012 51.012329-66.7653 116.014662-46.633345 170.382317 20.188826 54.424525 75.18205 90.081973 144.335888 93.494169zM576.907549 816.140398c20.131956 54.424525 75.068311 90.081973 144.279018 93.494168 69.096968 3.412196 141.890481-25.818949 190.855493-76.774408 48.965012-51.012329 66.7653-116.014662 46.633344-170.382317-20.188826-54.424525-75.18205-90.081973-144.335888-93.494169-69.096968-3.412196-141.890481 25.818949-190.855492 76.774409-48.965012 51.012329-66.7653 116.014662-46.633345 170.382317z" fill="#333333" opacity=".99" p-id="2728"></path><path d="M846.186679 4.435855L464.134474 133.871821C424.89422 146.496945 398.108482 184.99789 398.108482 228.617128V796.179051h73.362213V336.1013c0-9.326669 5.516383-17.629679 14.217483-20.018217l382.507164-129.947795a21.724314 21.724314 0 0 1 5.516384-0.966789 20.473176 20.473176 0 0 1 19.733866 21.041875v478.61735H966.807805V98.726202C966.807805 32.302122 906.241327-15.070532 846.186679 4.435855z" fill="#333333" opacity=".99" p-id="2729"></path></svg>